<svg width="30" height="30" viewBox="0 0 30 30" fill="none" xmlns="http://www.w3.org/2000/svg">
<path d="M5 5H11.25V2.5H2.5V11.25H5V5Z" fill="black"/>
<path d="M5 18.75H2.5V27.5H11.25V25H5V18.75Z" fill="black"/>
<path d="M18.75 2.5V5H25V11.25H27.5V2.5H18.75Z" fill="black"/>
<path d="M25 25H18.75V27.5H27.5V18.75H25V25Z" fill="black"/>
<path d="M11.25 10H8.75V12.5H11.25V10Z" fill="black"/>
<path d="M21.25 10H18.75V12.5H21.25V10Z" fill="black"/>
<path d="M13.8812 16.9413L16.1188 18.0587L16.95 16.3962C17.1394 16.0029 17.2157 15.5647 17.1704 15.1305C17.1252 14.6964 16.9601 14.2833 16.6937 13.9375C16.3482 12.6549 16.1986 11.3274 16.25 10H13.75C13.75 11.225 13.8363 14.175 14.6563 15.3925L13.8812 16.9413Z" fill="black"/>
<path d="M17.8813 19.1025C17.0593 19.737 16.0369 20.0554 15 20C13.9651 20.0548 12.9449 19.7363 12.125 19.1025L10.375 20.8837C11.6542 21.9924 13.3087 22.5706 15 22.5C16.6943 22.5729 18.3523 21.9946 19.6337 20.8837L17.8813 19.1025Z" fill="black"/>
</svg>
