<svg width="32" height="32" viewBox="0 0 32 32" fill="none" xmlns="http://www.w3.org/2000/svg">
<path d="M26.7501 16C26.7501 15.91 26.7501 15.83 26.7501 15.74C26.7501 15.65 26.7501 15.64 26.7501 15.59C26.7547 15.5468 26.7547 15.5032 26.7501 15.46C26.6515 13.5634 26.0517 11.7268 25.0118 10.1375C23.972 8.54824 22.5294 7.26312 20.831 6.41317C19.1326 5.56323 17.2391 5.17886 15.3437 5.29925C13.4483 5.41964 11.6188 6.04049 10.0416 7.0985C8.46433 8.1565 7.19587 9.61383 6.36549 11.3219C5.53511 13.03 5.17252 14.9277 5.31468 16.8216C5.45684 18.7154 6.09866 20.5378 7.17472 22.1027C8.25077 23.6677 9.72257 24.9193 11.4401 25.73L11.6301 25.81L12.4001 26.12L12.7601 26.23C12.9801 26.3 13.2101 26.37 13.4401 26.42L13.8401 26.52L14.5401 26.63L14.9201 26.68C15.2301 26.68 15.5501 26.68 15.9201 26.68H16.0001C17.0162 26.6803 18.0268 26.532 19.0001 26.24C19.1261 26.2032 19.2437 26.142 19.3461 26.0598C19.4485 25.9776 19.5337 25.876 19.5969 25.7609C19.66 25.6457 19.6999 25.5193 19.7141 25.3887C19.7284 25.2582 19.7168 25.1261 19.6801 25C19.6433 24.874 19.5821 24.7564 19.4998 24.654C19.4176 24.5516 19.316 24.4664 19.2009 24.4032C19.0858 24.3401 18.9593 24.3002 18.8288 24.2859C18.6982 24.2717 18.5661 24.2832 18.4401 24.32C17.5551 24.584 16.633 24.7023 15.7101 24.67H15.2301H14.9101L14.4501 24.6L14.1101 24.53L13.6901 24.43L13.3201 24.32L13.0001 24.21L12.5801 24C11.7137 23.641 10.9129 23.1409 10.2101 22.52C9.12079 21.5605 8.28733 20.3451 7.78481 18.9832C7.28228 17.6214 7.12646 16.1559 7.33139 14.7188C7.53631 13.2817 8.09555 11.9182 8.95872 10.7511C9.82188 9.58403 10.9618 8.65001 12.2759 8.03322C13.59 7.41644 15.0368 7.13627 16.4861 7.21795C17.9355 7.29964 19.3417 7.74062 20.5781 8.50116C21.8145 9.26169 22.8423 10.3179 23.5689 11.5746C24.2954 12.8313 24.6979 14.249 24.7401 15.7C24.7577 16.3253 24.5354 16.9336 24.119 17.4003C23.7025 17.8669 23.1233 18.1567 22.5001 18.21C21.8506 18.1515 21.2504 17.8395 20.8293 17.3417C20.4082 16.8438 20.2001 16.2002 20.2501 15.55C20.2498 15.416 20.2226 15.2833 20.1701 15.16C20.0543 14.5524 19.8072 13.9773 19.4462 13.475C19.0851 12.9727 18.6188 12.5553 18.0797 12.2519C17.5406 11.9484 16.9418 11.7664 16.3251 11.7184C15.7083 11.6703 15.0886 11.7575 14.509 11.9738C13.9295 12.1902 13.4041 12.5304 12.9697 12.9707C12.5353 13.4111 12.2022 13.941 11.9937 14.5234C11.7853 15.1059 11.7065 15.7268 11.7629 16.3428C11.8192 16.9588 12.0094 17.5551 12.3201 18.09C12.4094 18.2408 12.5368 18.3654 12.6895 18.4514C12.8422 18.5374 13.0148 18.5817 13.1901 18.58C13.3651 18.579 13.5368 18.532 13.688 18.4438C13.8391 18.3556 13.9645 18.2293 14.0516 18.0774C14.1386 17.9256 14.1843 17.7535 14.184 17.5785C14.1838 17.4035 14.1376 17.2316 14.0501 17.08C13.8513 16.7404 13.7476 16.3535 13.7501 15.96C13.7501 15.3633 13.9871 14.791 14.4091 14.369C14.831 13.9471 15.4033 13.71 16.0001 13.71C16.5968 13.71 17.1691 13.9471 17.5911 14.369C18.013 14.791 18.2501 15.3633 18.2501 15.96C18.2534 16.0766 18.2771 16.1916 18.3201 16.3C18.434 17.344 18.9183 18.3125 19.6852 19.0299C20.4522 19.7473 21.4508 20.166 22.5001 20.21C23.5493 20.166 24.548 19.7473 25.3149 19.0299C26.0818 18.3125 26.5662 17.344 26.6801 16.3C26.7188 16.2042 26.7424 16.103 26.7501 16Z" fill="black"/>
<path d="M13.25 20.76C12.9348 20.5774 12.6369 20.3666 12.36 20.13C11.6713 19.522 11.1459 18.7512 10.8317 17.888C10.5175 17.0247 10.4245 16.0965 10.5613 15.1881C10.6981 14.2797 11.0602 13.42 11.6146 12.6875C12.169 11.955 12.8981 11.373 13.7353 10.9948C14.5724 10.6165 15.491 10.4539 16.4071 10.5219C17.3233 10.5899 18.2078 10.8863 18.9799 11.384C19.7521 11.8818 20.3872 12.565 20.8274 13.3713C21.2676 14.1776 21.4989 15.0813 21.5 16C21.5 16.2652 21.6054 16.5196 21.7929 16.7071C21.9804 16.8946 22.2348 17 22.5 17C22.7652 17 23.0196 16.8946 23.2071 16.7071C23.3947 16.5196 23.5 16.2652 23.5 16C23.4934 14.7507 23.1747 13.5228 22.573 12.4279C21.9713 11.3329 21.1056 10.4057 20.0546 9.73029C19.0035 9.0549 17.8004 8.65277 16.5545 8.56043C15.3085 8.46809 14.0593 8.68846 12.9201 9.20153C11.781 9.7146 10.788 10.5041 10.0315 11.4984C9.27498 12.4926 8.77881 13.6601 8.58806 14.8948C8.3973 16.1295 8.51802 17.3923 8.93923 18.5685C9.36045 19.7447 10.0688 20.7971 11 21.63C11.3731 21.9599 11.7785 22.2513 12.21 22.5C12.3243 22.5657 12.4503 22.6082 12.581 22.6251C12.7117 22.6421 12.8444 22.6331 12.9716 22.5987C13.0989 22.5644 13.2181 22.5053 13.3225 22.4249C13.4268 22.3444 13.5144 22.2442 13.58 22.13C13.6457 22.0157 13.6882 21.8897 13.7051 21.759C13.7221 21.6283 13.7131 21.4956 13.6788 21.3684C13.6444 21.2411 13.5853 21.1219 13.5049 21.0176C13.4245 20.9132 13.3243 20.8257 13.21 20.76H13.25Z" fill="black"/>
<path d="M22.09 21.5C20.7409 21.4973 19.4477 20.9602 18.4937 20.0062C17.5398 19.0522 17.0026 17.7591 17 16.41C17 16.1448 16.8946 15.8904 16.7071 15.7029C16.5196 15.5153 16.2652 15.41 16 15.41C15.7348 15.41 15.4804 15.5153 15.2929 15.7029C15.1054 15.8904 15 16.1448 15 16.41C15.0026 18.2895 15.7505 20.0914 17.0795 21.4204C18.4086 22.7495 20.2104 23.4973 22.09 23.5C22.3552 23.5 22.6096 23.3946 22.7971 23.2071C22.9846 23.0195 23.09 22.7652 23.09 22.5C23.09 22.2348 22.9846 21.9804 22.7971 21.7929C22.6096 21.6053 22.3552 21.5 22.09 21.5Z" fill="black"/>
<path d="M16.0001 1.99999C15.2194 1.99783 14.44 2.06139 13.6701 2.18999C13.4048 2.23375 13.1679 2.38108 13.0113 2.59956C12.8547 2.81804 12.7913 3.08978 12.8351 3.35499C12.8788 3.62021 13.0261 3.85718 13.2446 4.01377C13.4631 4.17036 13.7348 4.23375 14.0001 4.18999C14.6604 4.07169 15.3293 4.00814 16.0001 3.99999C18.1692 4.00038 20.2976 4.58871 22.159 5.70239C24.0204 6.81608 25.5451 8.41348 26.571 10.3247C27.5969 12.2359 28.0855 14.3894 27.985 16.5562C27.8845 18.723 27.1985 20.822 26.0001 22.63C25.8585 22.8496 25.8085 23.116 25.8608 23.3721C25.9131 23.6281 26.0636 23.8535 26.2801 24C26.3896 24.0732 26.5125 24.1241 26.6418 24.1496C26.7711 24.1752 26.9041 24.175 27.0333 24.1489C27.1624 24.1229 27.2852 24.0716 27.3945 23.998C27.5038 23.9244 27.5974 23.8299 27.6701 23.72C29.0644 21.6106 29.8614 19.163 29.9764 16.6371C30.0915 14.1111 29.5203 11.6012 28.3236 9.37377C27.1268 7.14636 25.3491 5.28466 23.1793 3.98636C21.0095 2.68806 18.5286 2.00164 16.0001 1.99999Z" fill="black"/>
<path d="M10 26.4C8.09069 25.2998 6.5212 23.695 5.46362 21.7618C4.40604 19.8285 3.90122 17.6414 4.00452 15.4402C4.10781 13.239 4.81523 11.1087 6.0492 9.28299C7.28318 7.45726 8.99605 6.00657 11 5.08999C11.1197 5.03506 11.2274 4.95704 11.3169 4.86039C11.4063 4.76374 11.4758 4.65037 11.5213 4.52679C11.5669 4.40321 11.5875 4.27185 11.5822 4.14026C11.5768 4.00867 11.5455 3.87944 11.49 3.75999C11.379 3.52077 11.1781 3.33506 10.9309 3.24329C10.6836 3.15152 10.4102 3.16112 10.17 3.26999C8.92259 3.83942 7.76665 4.59095 6.74001 5.49999C5.0727 6.96931 3.77913 8.81445 2.96629 10.8828C2.15344 12.9512 1.84467 15.1833 2.06552 17.3947C2.28636 19.606 3.03046 21.733 4.2363 23.5998C5.44214 25.4665 7.07505 27.0194 9.00001 28.13C9.11414 28.1961 9.24023 28.239 9.37101 28.2562C9.50179 28.2734 9.63467 28.2645 9.76201 28.2301C9.88935 28.1957 10.0086 28.1365 10.113 28.0558C10.2173 27.9751 10.3047 27.8746 10.37 27.76C10.5004 27.5304 10.5346 27.2585 10.4653 27.0037C10.396 26.7489 10.2287 26.5319 10 26.4Z" fill="black"/>
<path d="M21 26.91C18.493 28.0545 15.6694 28.3051 13 27.62C12.7427 27.5537 12.4697 27.5923 12.2409 27.7273C12.0121 27.8623 11.8463 28.0827 11.78 28.34C11.7137 28.5972 11.7523 28.8703 11.8873 29.0991C12.0223 29.3279 12.2427 29.4937 12.5 29.56C13.6438 29.852 14.8195 29.9998 16 30C18.0123 30.0033 20.0014 29.57 21.83 28.73C21.9495 28.6755 22.0571 28.598 22.1466 28.5019C22.2362 28.4058 22.3059 28.293 22.3519 28.17C22.3979 28.047 22.4192 27.9161 22.4145 27.7848C22.4099 27.6536 22.3795 27.5245 22.325 27.405C22.2705 27.2855 22.193 27.1779 22.0969 27.0883C22.0008 26.9988 21.888 26.929 21.765 26.8831C21.642 26.8371 21.5111 26.8158 21.3798 26.8204C21.2486 26.8251 21.1195 26.8555 21 26.91Z" fill="black"/>
</svg>
