<svg width="100" height="100" viewBox="0 0 100 100" fill="none" xmlns="http://www.w3.org/2000/svg">
<g clip-path="url(#clip0_5_51)">
<path d="M100 0H0V100H100V0Z" fill="white"/>
<path d="M100 0H0V100H100V0Z" fill="#CA102B"/>
<mask id="mask0_5_51" style="mask-type:luminance" maskUnits="userSpaceOnUse" x="1" y="2" width="17" height="17">
<path d="M1.53542 2.68542H17.3333V18.4854H1.53542V2.68542Z" fill="white"/>
</mask>
<g mask="url(#mask0_5_51)">
<path d="M17.3115 10.574C11.3958 11.6635 10.5125 12.5458 9.42396 18.4625C8.33437 12.5458 7.45104 11.6635 1.53542 10.574C7.45104 9.48542 8.33437 8.60208 9.42396 2.68542C10.5125 8.60208 11.3958 9.48542 17.3115 10.574Z" fill="white"/>
</g>
<path d="M10.3944 79.7348C9.92774 79.7348 9.50794 79.6327 9.13607 79.4306C8.76628 79.2254 8.47357 78.941 8.2569 78.5764C8.04232 78.2129 7.93607 77.8014 7.93607 77.3431V73.9348C7.93607 73.816 7.90482 73.7087 7.8444 73.6139C7.78607 73.5171 7.70794 73.4389 7.61107 73.3806C7.51628 73.3202 7.40899 73.2889 7.29024 73.2889C7.17044 73.2889 7.06211 73.3202 6.96524 73.3806C6.87044 73.4389 6.7944 73.5171 6.73607 73.6139C6.67982 73.7087 6.65274 73.816 6.65274 73.9348V79.6014H4.82774V74.0681C4.82774 73.6014 4.93294 73.191 5.1444 72.8348C5.35794 72.4764 5.65065 72.1952 6.02357 71.9889C6.39857 71.7806 6.82044 71.6764 7.29024 71.6764C7.76524 71.6764 8.18711 71.7806 8.5569 71.9889C8.92878 72.1952 9.22149 72.4764 9.43607 72.8348C9.65274 73.191 9.76107 73.6014 9.76107 74.0681V77.4764C9.76107 77.5931 9.79024 77.7035 9.84857 77.8056C9.90899 77.9056 9.98607 77.9837 10.0777 78.0389C10.1715 78.0952 10.2746 78.1223 10.3861 78.1223C10.5027 78.1223 10.6111 78.0952 10.7111 78.0389C10.8132 77.9837 10.8944 77.9056 10.9527 77.8056C11.0111 77.7035 11.0402 77.5931 11.0402 77.4764V71.8098H12.8569V77.3431C12.8569 77.8014 12.7486 78.2129 12.5319 78.5764C12.3173 78.941 12.0246 79.2254 11.6527 79.4306C11.2829 79.6327 10.8632 79.7348 10.3944 79.7348Z" fill="white"/>
<mask id="mask1_5_51" style="mask-type:luminance" maskUnits="userSpaceOnUse" x="33" y="7" width="67" height="76">
<path d="M33.3927 7.46563H100V82.4656H33.3927V7.46563Z" fill="white"/>
</mask>
<g mask="url(#mask1_5_51)">
<path d="M108.393 44.9656C108.393 45.5792 108.377 46.1927 108.347 46.8052C108.317 47.4188 108.272 48.0302 108.211 48.6406C108.152 49.2521 108.076 49.8604 107.986 50.4677C107.897 51.075 107.792 51.6792 107.672 52.2813C107.552 52.8833 107.418 53.4813 107.269 54.0771C107.12 54.6719 106.955 55.2635 106.777 55.851C106.599 56.4385 106.407 57.0208 106.2 57.599C105.994 58.176 105.773 58.749 105.538 59.3156C105.303 59.8833 105.054 60.4438 104.792 60.999C104.529 61.5531 104.253 62.101 103.965 62.6427C103.675 63.1844 103.373 63.7177 103.057 64.2438C102.742 64.7708 102.414 65.2885 102.073 65.799C101.731 66.3094 101.378 66.8115 101.013 67.3042C100.647 67.7969 100.27 68.2802 99.8802 68.7552C99.4906 69.2292 99.0906 69.6938 98.6781 70.149C98.2656 70.6031 97.8427 71.0479 97.4083 71.4823C96.975 71.9156 96.5302 72.3385 96.076 72.751C95.6208 73.1635 95.1563 73.5635 94.6823 73.9531C94.2073 74.3427 93.724 74.7198 93.2313 75.0854C92.7385 75.451 92.2365 75.8042 91.726 76.1458C91.2156 76.4865 90.6979 76.8146 90.1708 77.1302C89.6448 77.4458 89.1104 77.7479 88.5698 78.0375C88.0281 78.3271 87.4802 78.6021 86.926 78.8646C86.3708 79.1271 85.8104 79.376 85.2427 79.6104C84.676 79.8458 84.1031 80.0667 83.526 80.2729C82.9479 80.4802 82.3656 80.6719 81.7781 80.851C81.1906 81.0292 80.599 81.1927 80.0042 81.3417C79.4083 81.4906 78.8104 81.625 78.2083 81.7448C77.6063 81.8646 77.0021 81.9698 76.3948 82.0594C75.7875 82.149 75.1792 82.225 74.5677 82.2844C73.9573 82.3448 73.3458 82.3896 72.7323 82.4198C72.1198 82.45 71.5063 82.4656 70.8927 82.4656C70.2781 82.4656 69.6656 82.45 69.0521 82.4198C68.4396 82.3896 67.8271 82.3448 67.2167 82.2844C66.6063 82.225 65.9969 82.149 65.3896 82.0594C64.7833 81.9698 64.1781 81.8646 63.576 81.7448C62.975 81.625 62.376 81.4906 61.7802 81.3417C61.1854 81.1927 60.5938 81.0292 60.0063 80.851C59.4198 80.6719 58.8365 80.4802 58.2594 80.2729C57.6813 80.0667 57.1083 79.8458 56.5417 79.6104C55.975 79.376 55.4135 79.1271 54.8594 78.8646C54.3042 78.6021 53.7563 78.3271 53.2146 78.0375C52.674 77.7479 52.1396 77.4458 51.6135 77.1302C51.0875 76.8146 50.5688 76.4865 50.0583 76.1458C49.5479 75.8042 49.0469 75.451 48.5531 75.0854C48.0604 74.7198 47.5771 74.3427 47.1021 73.9531C46.6281 73.5635 46.1635 73.1635 45.7083 72.751C45.2542 72.3385 44.8094 71.9156 44.376 71.4823C43.9417 71.0479 43.5188 70.6031 43.1062 70.149C42.6948 69.6938 42.2937 69.2292 41.9042 68.7552C41.5146 68.2802 41.1375 67.7969 40.7719 67.3042C40.4062 66.8115 40.0531 66.3094 39.7125 65.799C39.3708 65.2885 39.0427 64.7708 38.7271 64.2438C38.4115 63.7177 38.1094 63.1844 37.8198 62.6427C37.5312 62.101 37.2552 61.5531 36.9927 60.999C36.7302 60.4438 36.4812 59.8833 36.2469 59.3156C36.0115 58.749 35.7917 58.176 35.5844 57.599C35.3781 57.0208 35.1854 56.4385 35.0073 55.851C34.8292 55.2635 34.6656 54.6719 34.5156 54.0771C34.3667 53.4813 34.2323 52.8833 34.1125 52.2813C33.9927 51.6792 33.8885 51.075 33.7979 50.4677C33.7083 49.8604 33.6333 49.2521 33.5729 48.6406C33.5125 48.0302 33.4677 47.4188 33.4375 46.8052C33.4073 46.1927 33.3927 45.5792 33.3927 44.9656C33.3927 44.3521 33.4073 43.7385 33.4375 43.125C33.4677 42.5125 33.5125 41.9 33.5729 41.2896C33.6333 40.6792 33.7083 40.0698 33.7979 39.4625C33.8885 38.8563 33.9927 38.251 34.1125 37.649C34.2323 37.0479 34.3667 36.449 34.5156 35.8531C34.6656 35.2583 34.8292 34.6667 35.0073 34.0792C35.1854 33.4927 35.3781 32.9094 35.5844 32.3323C35.7917 31.7542 36.0115 31.1813 36.2469 30.6146C36.4812 30.0479 36.7302 29.4865 36.9927 28.9323C37.2552 28.3771 37.5312 27.8292 37.8198 27.2875C38.1094 26.7469 38.4115 26.2125 38.7271 25.6865C39.0427 25.1604 39.3708 24.6417 39.7125 24.1313C40.0531 23.6208 40.4062 23.1198 40.7719 22.6271C41.1375 22.1333 41.5146 21.65 41.9042 21.176C42.2937 20.701 42.6948 20.2365 43.1062 19.7823C43.5188 19.3271 43.9417 18.8823 44.376 18.449C44.8094 18.0146 45.2542 17.5917 45.7083 17.1792C46.1635 16.7677 46.6281 16.3667 47.1021 15.9771C47.5771 15.5885 48.0604 15.2104 48.5531 14.8448C49.0469 14.4792 49.5479 14.126 50.0583 13.7854C50.5688 13.4438 51.0875 13.1156 51.6135 12.8C52.1396 12.4854 52.674 12.1823 53.2146 11.8938C53.7563 11.6042 54.3042 11.3281 54.8594 11.0656C55.4135 10.8031 55.975 10.5542 56.5417 10.3198C57.1083 10.0854 57.6813 9.86458 58.2594 9.65729C58.8365 9.45104 59.4198 9.25833 60.0063 9.08021C60.5938 8.90208 61.1854 8.73854 61.7802 8.58958C62.376 8.43958 62.975 8.30521 63.576 8.18542C64.1781 8.06563 64.7833 7.96146 65.3896 7.87083C65.9969 7.78125 66.6063 7.70625 67.2167 7.64583C67.8271 7.58542 68.4396 7.54063 69.0521 7.51042C69.6656 7.48021 70.2781 7.46563 70.8927 7.46563C71.5063 7.46563 72.1198 7.48021 72.7323 7.51042C73.3458 7.54063 73.9573 7.58542 74.5677 7.64583C75.1792 7.70625 75.7875 7.78125 76.3948 7.87083C77.0021 7.96146 77.6063 8.06563 78.2083 8.18542C78.8104 8.30521 79.4083 8.43958 80.0042 8.58958C80.599 8.73854 81.1906 8.90208 81.7781 9.08021C82.3656 9.25833 82.9479 9.45104 83.526 9.65729C84.1031 9.86458 84.676 10.0854 85.2427 10.3198C85.8104 10.5542 86.3708 10.8031 86.926 11.0656C87.4802 11.3281 88.0281 11.6042 88.5698 11.8938C89.1104 12.1823 89.6448 12.4854 90.1708 12.8C90.6979 13.1156 91.2156 13.4438 91.726 13.7854C92.2365 14.126 92.7385 14.4792 93.2313 14.8448C93.724 15.2104 94.2073 15.5885 94.6823 15.9771C95.1563 16.3667 95.6208 16.7677 96.076 17.1792C96.5302 17.5917 96.975 18.0146 97.4083 18.449C97.8427 18.8823 98.2656 19.3271 98.6781 19.7823C99.0906 20.2365 99.4906 20.701 99.8802 21.176C100.27 21.65 100.647 22.1333 101.013 22.6271C101.378 23.1198 101.731 23.6208 102.073 24.1313C102.414 24.6417 102.742 25.1604 103.057 25.6865C103.373 26.2125 103.675 26.7469 103.965 27.2875C104.253 27.8292 104.529 28.3771 104.792 28.9323C105.054 29.4865 105.303 30.0479 105.538 30.6146C105.773 31.1813 105.994 31.7542 106.2 32.3323C106.407 32.9094 106.599 33.4927 106.777 34.0792C106.955 34.6667 107.12 35.2583 107.269 35.8531C107.418 36.449 107.552 37.0479 107.672 37.649C107.792 38.251 107.897 38.8563 107.986 39.4625C108.076 40.0698 108.152 40.6792 108.211 41.2896C108.272 41.9 108.317 42.5125 108.347 43.125C108.377 43.7385 108.393 44.3521 108.393 44.9656Z" fill="white"/>
</g>
<path d="M95.7234 69.0935C95.2286 69.0935 94.7921 68.9935 94.415 68.7935C94.04 68.5935 93.7525 68.3174 93.5525 67.9643C93.3525 67.6091 93.2525 67.2091 93.2525 66.7643C93.2525 66.3174 93.3525 65.9174 93.5525 65.5643C93.7525 65.2091 94.04 64.9299 94.415 64.7268C94.7921 64.5216 95.2286 64.4185 95.7234 64.4185C96.2254 64.4185 96.665 64.5185 97.04 64.7185C97.4171 64.9185 97.7067 65.1956 97.9067 65.5477C98.1067 65.9008 98.2067 66.3008 98.2067 66.7477C98.2067 67.4289 97.9796 67.9893 97.5275 68.431C97.0775 68.8727 96.4755 69.0935 95.7234 69.0935Z" fill="#CA102B"/>
<path d="M69.1232 47.215V60.9066H93.0148V69.19H59.2315V19.1483H92.4648V27.4316H69.1232V39.1358H89.5232V47.215H69.1232Z" fill="black"/>
<path d="M0.643188 69.2627V31.4711H10.5807V34.3002C11.9359 33.1398 13.4349 32.2575 15.0765 31.6544C16.7203 31.0492 18.5109 30.7461 20.4474 30.7461C22.864 30.7461 25.0515 31.2419 27.0099 32.2336C28.9682 33.2252 30.5765 34.6159 31.8349 36.4044C33.3349 34.5659 35.1484 33.1627 37.2765 32.1961C39.4036 31.2294 41.7484 30.7461 44.3099 30.7461C48.5182 30.7461 51.9765 32.1492 54.6849 34.9544C57.3932 37.7575 58.7474 41.3586 58.7474 45.7586V69.2627H48.8099V47.2127C48.8099 44.844 48.1682 42.9336 46.8849 41.4836C45.6036 40.0315 43.8765 39.3044 41.7015 39.3044C40.2015 39.3044 38.8349 39.6315 37.6015 40.2836C36.3682 40.9367 35.3161 41.8669 34.4474 43.0752C34.4942 43.5117 34.5411 43.9481 34.589 44.3836C34.639 44.8169 34.664 45.2752 34.664 45.7586V69.2627H24.7265V47.2127C24.7265 44.844 24.0849 42.9336 22.8015 41.4836C21.5203 40.0315 19.7932 39.3044 17.6182 39.3044C16.1182 39.3044 14.7869 39.595 13.6265 40.1752C12.4651 40.7565 11.4494 41.6023 10.5807 42.7127V69.2627H0.643188Z" fill="black"/>
<path d="M26.0008 80.3836C25.2174 80.3836 24.5091 80.2127 23.8758 79.8711C23.2424 79.5294 22.7435 79.0575 22.3799 78.4544C22.0185 77.8523 21.8383 77.169 21.8383 76.4044C21.8383 75.644 22.0185 74.9617 22.3799 74.3586C22.7435 73.7534 23.2424 73.2815 23.8758 72.9419C24.5091 72.6002 25.2195 72.4294 26.0091 72.4294C26.6758 72.4294 27.2778 72.5482 27.8174 72.7836C28.356 73.0169 28.8091 73.3534 29.1758 73.7919L28.0341 74.8461C27.5112 74.2461 26.8674 73.9461 26.1008 73.9461C25.6226 73.9461 25.1966 74.0502 24.8216 74.2586C24.4487 74.4669 24.1591 74.7586 23.9508 75.1336C23.7424 75.5065 23.6383 75.9294 23.6383 76.4044C23.6383 76.8825 23.7424 77.3086 23.9508 77.6836C24.1591 78.0565 24.4487 78.3461 24.8216 78.5544C25.1966 78.7627 25.6226 78.8669 26.1008 78.8669C26.8674 78.8669 27.5112 78.5627 28.0341 77.9544L29.1758 79.0086C28.8091 79.4565 28.3549 79.7982 27.8133 80.0336C27.2716 80.2669 26.6674 80.3836 26.0008 80.3836Z" fill="black"/>
<path d="M39.6292 78.6044H36.0583L35.3792 80.2503H33.5542L36.9833 72.5628H38.7375L42.1792 80.2503H40.3083L39.6292 78.6044ZM39.0708 77.2503L37.85 74.3086L36.6292 77.2503H39.0708Z" fill="black"/>
<path d="M54.17 80.2503L54.1575 75.6378L51.895 79.4378H51.095L48.8408 75.7378V80.2503H47.1741V72.5628H48.645L51.5241 77.3378L54.3575 72.5628H55.8158L55.8408 80.2503H54.17Z" fill="black"/>
<path d="M65.1821 72.5628C65.8654 72.5628 66.4571 72.6773 66.9571 72.9044C67.4591 73.1294 67.8456 73.4523 68.1154 73.8711C68.3873 74.2878 68.5237 74.7815 68.5237 75.3503C68.5237 75.9148 68.3873 76.4076 68.1154 76.8294C67.8456 77.2492 67.4591 77.5711 66.9571 77.7961C66.4571 78.019 65.8654 78.1294 65.1821 78.1294H63.6362V80.2503H61.8571V72.5628H65.1821ZM65.0862 76.6794C65.6196 76.6794 66.0248 76.5648 66.3029 76.3336C66.5831 76.1034 66.7237 75.7753 66.7237 75.3503C66.7237 74.9201 66.5831 74.5898 66.3029 74.3586C66.0248 74.1284 65.6196 74.0128 65.0862 74.0128H63.6362V76.6794H65.0862Z" fill="black"/>
<path d="M77.5078 80.3836C76.4078 80.3836 75.5516 80.0794 74.9412 79.4711C74.3297 78.8628 74.0245 77.9951 74.0245 76.8669V72.5628H75.8037V76.8003C75.8037 78.1784 76.3745 78.8669 77.5162 78.8669C78.0745 78.8669 78.4995 78.7003 78.7912 78.3669C79.0828 78.0336 79.2287 77.5117 79.2287 76.8003V72.5628H80.987V76.8669C80.987 77.9951 80.6808 78.8628 80.0703 79.4711C79.4589 80.0794 78.6047 80.3836 77.5078 80.3836Z" fill="black"/>
<path d="M89.4652 80.3836C88.8569 80.3836 88.2694 80.3013 87.7027 80.1377C87.136 79.9711 86.6798 79.7565 86.336 79.4919L86.9402 78.1544C87.2673 78.3961 87.6579 78.5909 88.111 78.7377C88.5662 78.8825 89.0214 78.9544 89.4777 78.9544C89.9829 78.9544 90.3569 78.8794 90.5985 78.7294C90.8402 78.5794 90.961 78.3794 90.961 78.1294C90.961 77.9461 90.8881 77.795 90.7444 77.6752C90.6027 77.5534 90.4194 77.4565 90.1944 77.3836C89.9714 77.3117 89.6704 77.2315 89.2902 77.1419C88.7037 77.0034 88.2235 76.8648 87.8485 76.7252C87.4756 76.5867 87.1569 76.3627 86.8902 76.0544C86.6235 75.7461 86.4902 75.3367 86.4902 74.8252C86.4902 74.3784 86.611 73.9742 86.8527 73.6127C87.0944 73.2492 87.4579 72.9617 87.9444 72.7502C88.4298 72.5367 89.0246 72.4294 89.7277 72.4294C90.2194 72.4294 90.6985 72.4898 91.1652 72.6086C91.6339 72.7252 92.0454 72.894 92.3985 73.1127L91.8485 74.4627C91.1371 74.0607 90.4277 73.8586 89.7194 73.8586C89.2194 73.8586 88.8496 73.9398 88.611 74.1002C88.3746 74.2617 88.2569 74.4742 88.2569 74.7377C88.2569 75.0023 88.3944 75.1982 88.6694 75.3252C88.9444 75.4534 89.3631 75.5794 89.9277 75.7044C90.5131 75.844 90.9923 75.9825 91.3652 76.1211C91.7402 76.2607 92.061 76.4794 92.3277 76.7794C92.5944 77.0794 92.7277 77.4867 92.7277 78.0002C92.7277 78.4398 92.6037 78.8409 92.3569 79.2044C92.1121 79.5659 91.7444 79.8534 91.2527 80.0669C90.7631 80.2773 90.1673 80.3836 89.4652 80.3836Z" fill="black"/>
</g>
<defs>
<clipPath id="clip0_5_51">
<rect width="100" height="100" rx="20" fill="white"/>
</clipPath>
</defs>
</svg>
