<svg width="100" height="100" viewBox="0 0 100 100" fill="none" xmlns="http://www.w3.org/2000/svg">
<path d="M63.5312 6.25C56.5674 6.25126 49.8154 8.64534 44.4062 13.0313C42.2119 11.1781 39.5492 9.96568 36.7108 9.52712C33.8723 9.08856 30.9679 9.44085 28.3165 10.5453C25.6652 11.6497 23.3696 13.4636 21.6819 15.7876C19.9943 18.1116 18.9798 20.8558 18.75 23.7188C15.0728 25.4943 11.9587 28.2529 9.75245 31.689C7.54624 35.1252 6.33402 39.1049 6.25 43.1875V43.4375C6.25144 46.3803 6.84665 49.2926 8 52C8.10137 52.2355 8.21614 52.4651 8.34375 52.6875C10.1123 56.5344 12.9432 59.7958 16.5031 62.0879C20.0629 64.3799 24.2036 65.6071 28.4375 65.625H67.6875C71.4375 65.6343 75.1277 64.6863 78.4089 62.8708C81.6901 61.0552 84.4535 58.4321 86.4375 55.25C91.137 49.9127 93.7359 43.0489 93.75 35.9375C93.6675 27.9973 90.4404 20.4136 84.7759 14.8487C79.1114 9.28382 71.4717 6.19167 63.5312 6.25ZM34.375 15.625C36.4035 15.625 38.3772 16.2829 40 17.5C38.6389 19.1302 37.4552 20.9006 36.4688 22.7813C33.9806 21.8958 31.3597 21.4414 28.7187 21.4375C27.6735 21.4444 26.6298 21.5175 25.5937 21.6563C26.2724 19.8786 27.476 18.3495 29.0445 17.2722C30.613 16.1949 32.4722 15.6204 34.375 15.625ZM81.5938 51.3125C81.4722 51.4451 81.3673 51.592 81.2812 51.75C79.8624 54.0827 77.8658 56.0099 75.4846 57.3456C73.1033 58.6813 70.4178 59.3803 67.6875 59.375H28.4375C25.4055 59.3609 22.4397 58.4874 19.8842 56.8556C17.3288 55.2239 15.2884 52.9009 14 50.1562L13.8437 49.8125V49.5C13.0145 47.6929 12.5575 45.7374 12.5 43.75V43.3125C12.6225 39.1042 14.3891 35.1115 17.4211 32.1905C20.453 29.2696 24.5088 27.653 28.7187 27.6875C31.4696 27.686 34.177 28.3736 36.5938 29.6875C36.9896 29.8981 37.4261 30.021 37.8736 30.048C38.3212 30.075 38.7693 30.0053 39.1875 29.8438C39.5973 29.701 39.9729 29.4744 40.2904 29.1785C40.6078 28.8826 40.8601 28.5238 41.0312 28.125C42.7399 23.5363 45.8112 19.5801 49.8331 16.7871C53.8549 13.9942 58.6348 12.4982 63.5312 12.5C69.8166 12.4333 75.8714 14.8643 80.3656 19.2588C84.8598 23.6534 87.4258 29.6522 87.5 35.9375C87.4849 41.6137 85.3827 47.0861 81.5938 51.3125Z" fill="black"/>
<path d="M73.5938 19.2813C72.9076 18.9132 72.1088 18.8146 71.3537 19.0046C70.5986 19.1947 69.9417 19.6598 69.5116 20.3089C69.0815 20.958 68.9092 21.7442 69.0284 22.5137C69.1477 23.2831 69.5499 23.9803 70.1563 24.4688C72.4172 26.2535 74.0884 28.6776 74.9524 31.4254C75.8163 34.1733 75.8329 37.1176 75 39.875C74.8888 40.2858 74.8627 40.7149 74.9232 41.1361C74.9838 41.5573 75.1297 41.9617 75.3521 42.3246C75.5744 42.6874 75.8686 43.0009 76.2164 43.2461C76.5643 43.4912 76.9585 43.6627 77.375 43.75H78.125C78.8389 43.7708 79.5383 43.5465 80.1069 43.1143C80.6755 42.6822 81.0789 42.0684 81.25 41.375C82.4009 37.352 82.2833 33.072 80.9132 29.1183C79.5431 25.1645 76.9872 21.7295 73.5938 19.2813Z" fill="black"/>
<path d="M34.375 71.875C33.5462 71.875 32.7513 72.2042 32.1653 72.7903C31.5792 73.3763 31.25 74.1712 31.25 75V90.625C31.25 91.4538 31.5792 92.2487 32.1653 92.8347C32.7513 93.4208 33.5462 93.75 34.375 93.75C35.2038 93.75 35.9987 93.4208 36.5847 92.8347C37.1708 92.2487 37.5 91.4538 37.5 90.625V75C37.5 74.1712 37.1708 73.3763 36.5847 72.7903C35.9987 72.2042 35.2038 71.875 34.375 71.875Z" fill="black"/>
<path d="M50 71.875C49.1712 71.875 48.3763 72.2042 47.7903 72.7903C47.2042 73.3763 46.875 74.1712 46.875 75V82.8125C46.875 83.6413 47.2042 84.4362 47.7903 85.0222C48.3763 85.6083 49.1712 85.9375 50 85.9375C50.8288 85.9375 51.6237 85.6083 52.2097 85.0222C52.7958 84.4362 53.125 83.6413 53.125 82.8125V75C53.125 74.1712 52.7958 73.3763 52.2097 72.7903C51.6237 72.2042 50.8288 71.875 50 71.875Z" fill="black"/>
<path d="M65.625 71.875C64.7962 71.875 64.0013 72.2042 63.4153 72.7903C62.8292 73.3763 62.5 74.1712 62.5 75V86.7188C62.5 87.5476 62.8292 88.3424 63.4153 88.9285C64.0013 89.5145 64.7962 89.8438 65.625 89.8438C66.4538 89.8438 67.2487 89.5145 67.8347 88.9285C68.4208 88.3424 68.75 87.5476 68.75 86.7188V75C68.75 74.1712 68.4208 73.3763 67.8347 72.7903C67.2487 72.2042 66.4538 71.875 65.625 71.875Z" fill="black"/>
</svg>
